<?xml version="1.0" encoding="UTF-8" standalone="no"?>
<!-- Created with Inkscape (http://www.inkscape.org/) -->

<svg
   version="1.1"
   id="svg2"
   width="168"
   height="190"
   viewBox="0 0 168 190"
   xmlns="http://www.w3.org/2000/svg"
   xmlns:svg="http://www.w3.org/2000/svg">
  <defs
     id="defs6" />
  <g
     id="g8">
    <path
       style="fill:#000000;stroke-width:1.00022"
       d="m 83.665151,189.99922 c -1.19083,-0.0473 -5.76515,-2.20693 -10.16515,-4.79906 l -7.999998,-4.71298 -0.28499,-10.20766 c -0.24281,-8.69729 -0.0545,-10.20767 1.27298,-10.20767 0.85688,0 5.147618,2.08668 9.534978,4.63705 l 7.97703,4.63704 7.97703,-4.63704 c 4.38736,-2.55037 8.678099,-4.63705 9.534979,-4.63705 1.3274,0 1.51578,1.51002 1.27297,10.20385 l -0.28498,10.20384 -8.334849,4.8029 c -4.58417,2.64158 -9.30917,4.76413 -10.5,4.71678 z M 50,170.73681 c -0.825,0.10051 -12.4125,-6.1182 -25.75,-13.81936 L 0,142.91535 V 114.53603 C 0,98.574962 0.398043,85.910595 0.909644,85.594263 c 0.500304,-0.309339 4.662804,1.600658 9.25,4.244428 L 18.5,94.645581 19,113.49412 l 0.5,18.84853 15.379525,8.71805 c 8.458738,4.79492 15.788881,9.44985 16.289206,10.34428 0.500325,0.89443 0.779538,5.56888 0.620475,10.38765 -0.227494,6.89188 -0.609281,8.80041 -1.789206,8.94418 z m 68.05306,0.33998 c -0.39585,0 -1.01973,-0.30014 -1.38639,-0.66697 -0.36667,-0.36682 -0.65978,-4.53119 -0.65136,-9.25415 0.008,-4.72295 0.41932,-9.22575 0.91309,-10.00623 0.49378,-0.78046 7.79939,-5.33127 16.23469,-10.1129 l 15.33691,-8.69389 0.5,-18.84853 0.5,-18.848539 8.34036,-4.80689 c 4.58719,-2.64377 8.74969,-4.553767 9.25,-4.244428 C 167.60196,85.910595 168,98.574282 168,114.53433 v 28.37763 l -24.61361,14.08241 c -13.53748,7.74533 -24.93748,14.08242 -25.33333,14.08242 z M 83.881331,153.04703 c -0.75973,-0.0119 -5.20633,-2.23941 -9.88133,-4.94996 l -8.499998,-4.92827 -0.5,-18.78003 -0.5,-18.78003 -14.483876,-8.262389 c -7.96613,-4.5443 -15.27863,-8.94318 -16.25,-9.77526 C 32.322755,86.334685 32,84.425898 32,77.126192 c 0,-4.912605 0.270063,-9.636095 0.600141,-10.496652 0.330077,-0.860556 4.54598,-3.823687 9.368674,-6.584741 4.822693,-2.761055 9.111313,-5.0201 9.530266,-5.0201 0.418953,0 7.90305,4.08539 16.631322,9.078644 l 15.869598,9.078648 15.86959,-9.078648 c 8.728279,-4.993254 16.212379,-9.078644 16.631329,-9.078644 0.41895,0 4.70757,2.259045 9.53027,5.0201 4.82269,2.761054 9.03859,5.724185 9.36867,6.584741 0.33008,0.860557 0.60014,5.584047 0.60014,10.496652 0,7.299706 -0.32276,9.208493 -1.76613,10.444899 -0.97137,0.83208 -8.28387,5.23128 -16.25,9.77599 L 103.5,105.61018 l -0.27183,18.66433 -0.27184,18.66434 -8.846839,5.06492 c -4.86576,2.78571 -9.46843,5.05518 -10.22816,5.04326 z M 49.75,133.9658 c -0.6875,-0.0519 -4.574191,-2.03855 -8.63709,-4.41478 -4.0629,-2.37623 -7.768509,-4.92242 -8.234687,-5.65821 -0.466179,-0.73579 -0.854488,-5.29119 -0.86291,-10.12312 -0.01162,-6.66698 0.326263,-8.91647 1.401282,-9.32918 0.779127,-0.29912 5.054127,1.55523 9.5,4.12076 L 51,113.22586 v 10.41716 c 0,7.71709 -0.323993,10.39269 -1.25,10.32278 z m 68.16216,0.0943 C 117.41047,134.0601 117,129.37238 117,123.64295 v -10.41716 l 8.08341,-4.66459 c 4.44587,-2.56553 8.72087,-4.41988 9.5,-4.12076 1.0743,0.41243 1.41659,2.68087 1.41659,9.38807 0,5.58699 -0.46036,9.41145 -1.25,10.38438 -0.6875,0.84709 -4.55203,3.40924 -8.58784,5.69369 -4.03582,2.28444 -7.74832,4.15352 -8.25,4.15352 z M 17.215017,77.951022 C 16.271758,77.904802 12.575,76.140049 9,74.029312 5.425,71.918564 1.922597,69.673677 1.216882,69.040673 c -0.927973,-0.832374 -1.204756,-4.094096 -1,-11.784434 L 0.5,46.62273 8.834849,41.819673 c 4.584166,-2.641682 9.15837,-4.803057 10.164897,-4.803057 1.006527,0 5.130845,1.950406 9.165152,4.334235 4.034306,2.383828 7.335102,4.95023 7.335102,5.703114 0,0.752884 -3.6,3.438171 -8,5.967304 l -8,4.598424 -0.284983,10.207665 c -0.248574,8.903566 -0.504089,10.196937 -2,10.123664 z m 133.232123,0.08404 c -1.06096,0 -1.44261,-2.343792 -1.66216,-10.207672 L 148.5,57.619725 l -8,-4.598424 c -4.4,-2.529133 -8,-5.21442 -8,-5.967304 0,-0.752884 3.3008,-3.319286 7.3351,-5.703114 4.03431,-2.383829 8.15863,-4.334235 9.16515,-4.334235 1.00653,0 5.58073,2.161301 10.1649,4.802891 l 8.33485,4.80289 0.28613,10.307894 c 0.18367,6.616752 -0.11971,10.797122 -0.84722,11.674116 -0.62334,0.751417 -4.27913,3.180707 -8.12397,5.398423 -3.84485,2.217705 -7.61036,4.0322 -8.3678,4.0322 z M 84.000001,57.005695 c -0.825,0 -4.875,-1.922809 -9,-4.272907 -4.124998,-2.350099 -7.499998,-4.914808 -7.499998,-5.699355 0,-0.784545 3.15,-3.326242 6.999998,-5.648214 3.85,-2.321971 8.125,-4.221766 9.5,-4.221766 1.375,0 5.65,1.899795 9.5,4.221766 3.85,2.321972 6.999999,4.863669 6.999999,5.648214 0,0.784547 -3.374999,3.349256 -7.499999,5.699355 -4.125,2.350098 -8.175,4.272907 -9,4.272907 z M 51.253857,39.013617 C 50.839236,39.011516 46.928409,36.873014 42.563131,34.261484 38.197853,31.649953 34.477742,29.040204 34.296219,28.46204 34.114696,27.883877 44.835985,21.243396 58.121307,13.705417 71.406631,6.1674371 83.056121,0 84.009071,0 c 0.95294,0 12.45204,6.0890281 25.553539,13.531173 13.10151,7.442145 24.07213,13.785328 24.37916,14.095963 0.30702,0.310635 -0.66705,1.537391 -2.16462,2.726124 -1.49757,1.188734 -5.55804,3.683716 -9.02326,5.544404 l -6.30041,3.383068 -16.22674,-9.261082 -16.226739,-9.261082 -15.996148,9.129473 c -8.797874,5.02121 -16.335374,9.12772 -16.749996,9.125576 z"
       id="path3798" />
  </g>
</svg>
